<?xml version="1.0" encoding="utf-8"?>
<!-- Generator: Adobe Illustrator 25.0.0, SVG Export Plug-In . SVG Version: 6.00 Build 0)  -->
<svg version="1.1" id="Layer_1" xmlns="http://www.w3.org/2000/svg" xmlns:xlink="http://www.w3.org/1999/xlink" x="0px" y="0px"
	 viewBox="0 0 225.42 40.13" style="enable-background:new 0 0 225.42 40.13;" xml:space="preserve">
<style type="text/css">
	.st0{fill:#4C20D3;}
	.st1{fill:#65EAD0;}
</style>
<path class="st0" d="M106.94,8.7c-2.71,0-4.61,0.7-5.71,2.1c-1.1,1.4-1.65,3.62-1.65,6.65c0,4.78,1.4,7.17,4.2,7.17
	c0.57,0,0.95-0.01,1.13-0.04c-0.36,0-0.65-0.63-0.88-1.9s-0.34-2.59-0.34-3.97c0-1.38,0.38-2.28,1.13-2.68
	c0.75-0.41,1.8-0.61,3.14-0.61c1.34,0,2.27,0.01,2.8,0.02c0.53,0.02,1.13,0.08,1.8,0.18c0.68,0.11,1.2,0.26,1.56,0.47
	c0.84,0.48,1.26,1.2,1.26,2.17v6.59c0,2.35-0.42,4.22-1.26,5.62c-0.84,1.4-2.42,2.22-4.74,2.46c-3.25,0.33-8.21,0.5-14.89,0.5
	c-2.68,0-4.97-0.42-6.88-1.26c-1.91-0.84-3.39-2.01-4.44-3.52c-1.93-2.8-2.89-6.35-2.89-10.67c0-4.32,1.38-8.16,4.15-11.53
	c2.77-3.37,6.45-5.17,11.05-5.41c3.16-0.18,5.44-0.27,6.86-0.27c5.14,0,8.8,0.32,10.96,0.95c1.47,0.42,2.21,1.61,2.21,3.56
	c0,2.62-0.77,3.92-2.3,3.92c-0.48-0.03-1.44-0.12-2.89-0.27C108.88,8.78,107.75,8.7,106.94,8.7z"/>
<path class="st0" d="M124.44,1.39h12.09c1.26,0,2.1,0.32,2.5,0.95c0.41,0.63,0.68,1.93,0.81,3.9c0.14,1.97,0.2,5.79,0.2,11.46
	c0,5.67-0.12,9.83-0.36,12.47c-0.09,0.69-0.4,1.31-0.92,1.85c-0.53,0.54-1.23,0.84-2.1,0.9c-1.71,0.12-3.7,0.18-5.95,0.18
	c-2.26,0-4.39-0.06-6.41-0.18c-0.87-0.06-1.57-0.36-2.1-0.9c-0.53-0.54-0.83-1.16-0.92-1.85c-0.24-2.65-0.36-6.8-0.36-12.47
	c0-5.67,0.07-9.49,0.2-11.46c0.14-1.97,0.41-3.27,0.81-3.9C122.34,1.71,123.18,1.39,124.44,1.39z"/>
<path class="st0" d="M145.33,29.82l-0.04-24.5c0.24-2.5,1.31-3.8,3.2-3.92c1.35-0.03,10.36-0.04,27.02-0.04
	c1.8,0,2.71,1.34,2.71,4.02c0,1.35-0.8,2.03-2.39,2.03h-9.83c-0.63,0-1.14,0.21-1.51,0.63c-0.38,0.42-0.56,0.98-0.56,1.67v3.2
	c0,0.93,0.39,1.4,1.17,1.4h7.49c0.72,0,1.26,0.17,1.62,0.5c0.36,0.33,0.54,1.09,0.54,2.28c0,1.19-0.17,1.95-0.52,2.28
	c-0.35,0.33-0.91,0.5-1.69,0.5h-6.72c-0.75,0-1.27,0.18-1.56,0.54c-0.29,0.36-0.43,0.93-0.43,1.71v7.76c0,1.05-0.23,1.83-0.68,2.35
	c-0.45,0.51-1.04,0.77-1.76,0.77h-12.81c-0.84,0-1.56-0.28-2.17-0.83C145.81,31.58,145.45,30.81,145.33,29.82z"/>
<path class="st0" d="M189.06,27.06c0-0.84-0.35-1.5-1.06-1.98c-0.71-0.48-1.56-0.85-2.57-1.11c-1.01-0.25-2.02-0.56-3.04-0.9
	s-1.89-0.95-2.59-1.8c-0.71-0.86-1.06-1.99-1.06-3.41c0-5.59,4.35-8.39,13.04-8.39c3.73,0,6.72,0.63,8.98,1.89
	c0.72,0.39,1.23,0.76,1.53,1.11c0.3,0.35,0.45,0.96,0.45,1.83c0,0.87-0.17,1.53-0.52,1.96c-0.35,0.44-0.69,0.65-1.04,0.65
	s-1.1-0.34-2.26-1.01c-1.16-0.68-2.35-1.03-3.59-1.06c-0.99,0-1.49,0.5-1.49,1.49c0,0.66,0.35,1.19,1.04,1.58
	c0.69,0.39,1.53,0.73,2.53,1.02c0.99,0.29,1.98,0.63,2.98,1.04c0.99,0.41,1.83,1.08,2.53,2.03c0.69,0.95,1.04,2.14,1.04,3.59
	c0,5.59-4.35,8.39-13.04,8.39c-4.24,0-7.7-0.62-10.38-1.85c-0.81-0.33-1.4-0.67-1.76-1.02c-0.36-0.35-0.54-0.98-0.54-1.9
	c0-0.92,0.19-1.57,0.56-1.96c0.38-0.39,0.69-0.59,0.95-0.59c0.25,0,1.12,0.33,2.59,0.99c1.47,0.66,2.96,0.99,4.47,0.99
	S189.06,28.12,189.06,27.06z"/>
<path class="st0" d="M213.04,0.61c1.13-0.17,2.47-0.25,4.04-0.25c1.56,0,2.9,0.08,4.01,0.25c1.11,0.17,1.94,0.35,2.48,0.56
	c0.54,0.21,0.96,0.5,1.26,0.88c0.3,0.38,0.47,0.69,0.52,0.95c0.05,0.26,0.07,0.59,0.07,1.02c0,4.45-1.23,9.82-3.7,16.1
	c-0.3,0.81-0.83,1.32-1.58,1.53c-0.75,0.21-1.73,0.32-2.93,0.32h-0.5c-2.59,0-4.11-0.62-4.56-1.85c-2.47-6.29-3.7-11.65-3.7-16.1
	c0-0.39,0.03-0.73,0.09-1.02c0.06-0.29,0.25-0.61,0.59-0.97s0.78-0.65,1.35-0.86C211.06,0.96,211.91,0.77,213.04,0.61z
	 M211.26,29.03c0-1.46,0.53-2.7,1.6-3.72c1.07-1.02,2.5-1.53,4.31-1.53s3.14,0.5,4.01,1.49c0.87,0.99,1.31,2.14,1.31,3.45
	s-0.53,2.5-1.58,3.56s-2.37,1.6-3.95,1.6s-2.92-0.44-4.04-1.33C211.81,31.66,211.26,30.48,211.26,29.03z"/>
<path class="st1" d="M24.02,27.64c0-1.05-0.08-1.66-0.16-2c-0.21,0.06-0.51,0.16-0.93,0.32c-1.11,0.41-2.05,0.61-2.87,0.61
	c-1.7,0-3.06-0.49-4.05-1.47c-0.98-0.96-1.52-2.15-1.6-3.55l0-5.5c0-0.66,0.12-1.2,0.38-1.65c0.23-0.4,0.8-1.07,2.11-1.07h4.69
	c0.3,0,0.47-0.04,0.55-0.07c0.04-0.14,0.12-0.49,0.12-1.2c0-0.9-0.1-1.79-0.2-2.23c-0.1-0.02-0.27-0.04-0.51-0.04h-4.83
	c-1.38,0-2.31-0.98-2.31-2.45V4.06c-0.15-0.03-0.5-0.09-1.16-0.09H11c-0.66,0-1.2,0.13-1.59,0.39c-0.41,0.27-1.31,0.93-3.28,2.6
	c-1.67,1.41-2.75,2.3-3.3,2.73c-0.69,0.53-1.46,0.91-2.3,1.12c-0.29,0.07-0.41,0.15-0.45,0.17C0.08,11,0,11.25,0,11.85
	c0,0.92,0.09,1.28,0.11,1.36c0.02,0.04,0.22,0.12,0.64,0.12c1.72,0,2.49,1.12,2.49,2.22v6c0,3.61,1,5.95,3.04,7.14
	c1.12,0.62,2.41,1.08,3.82,1.33c2.99,0.54,6.45,0.5,9.77,0.1c1.63-0.2,2.89-0.45,3.75-0.74C23.8,29.32,24.02,28.74,24.02,27.64z"/>
<g>
	<path class="st1" d="M29.35,38.23c2.98,1.26,6.9,1.9,11.64,1.9c5.09,0,7.82-0.77,10.36-1.94c1.32-0.64,2.39-1.52,3.16-2.64
		c0.77-1.11,1.15-2.32,1.18-3.69c0.03-1.56,0.04-3.84,0.04-6.84l-0.09-14.85c0-0.19-0.05-0.43-0.42-0.7
		c-0.38-0.28-0.74-0.42-1.1-0.42l-3.79-0.09c-0.86,0-1.58,0.01-2.18,0.02C47.57,9,47.12,9.02,46.81,9.05
		c-0.47,0.04-0.89,0.21-1.28,0.52c-0.19,0.15-0.45,0.42-0.47,1.05l-0.11,2.77l-1.69-2.2C42,9.55,40.05,9.47,36.71,9.47
		c-3.08,0-5.61,0.91-7.73,2.79c-2.08,1.85-3.09,4.55-3.09,8.25c0,3.67,0.87,6.35,2.6,7.98c1.76,1.67,3.91,2.48,6.55,2.48
		c2.81,0,5.14-0.16,7.25-2.19c0.34-0.34,0.71-0.42,0.96-0.42c0.61,0,1.27,0.45,1.27,1.45l0.04,1.36c0,1.37-0.42,2.5-1.24,3.38
		c-0.77,0.83-1.68,1.39-2.71,1.66c-0.92,0.25-1.97,0.37-3.1,0.37c-2.46,0-4.95-0.61-7.39-1.82c-0.75-0.36-1.21-0.44-1.45-0.44
		c-0.15,0-0.33,0.04-0.56,0.32c-0.21,0.26-0.33,0.77-0.33,1.46c0,0.98,0.21,1.26,0.26,1.31C28.21,37.6,28.57,37.89,29.35,38.23z
		 M44.38,21.37c0,1.07-0.43,1.95-1.25,2.54c-0.73,0.53-1.59,0.8-2.55,0.8c-1.33,0-3.57-0.64-3.57-4.9s2.29-4.9,3.66-4.9
		c0.91,0,1.74,0.28,2.48,0.83c0.81,0.61,1.23,1.48,1.23,2.51V21.37z"/>
</g>
<g>
	<path class="st1" d="M70.91,29.77c0.17-1.64,0.26-4.48,0.26-8.46c0-4.05-0.05-6.87-0.15-8.38c-0.11-1.61-0.33-2.1-0.38-2.19
		c-0.02,0.01-0.24-0.09-0.86-0.09h-8.8c-0.6,0-0.83,0.1-0.87,0.12c0.01,0.02-0.21,0.48-0.34,2.06c-0.12,1.42-0.18,4.17-0.18,8.16
		c0,3.98,0.1,6.95,0.31,8.84c0.01,0.09,0.05,0.23,0.25,0.41c0,0,0.32,0.23,1.51,0.3c1.17,0.07,2.49,0.11,3.92,0.11
		c1.42,0,2.67-0.04,3.71-0.11c1.05-0.07,1.31-0.3,1.32-0.3C70.81,30.05,70.88,29.89,70.91,29.77z"/>
	<path class="st1" d="M69.41,0.87C68.68,0.29,67.48,0,65.85,0c-5.31,0-5.31,2.33-5.31,3.33c0,0.98,0.35,1.63,1.13,2.1
		c0.99,0.6,2.23,0.91,3.69,0.91c5,0,5-2.28,5-3.37C70.35,2.05,70.05,1.38,69.41,0.87z"/>
</g>
</svg>
